<?xml version="1.0" encoding="UTF-8"?><svg id="b" xmlns="http://www.w3.org/2000/svg" width="620.55" height="49.67" viewBox="0 0 620.55 49.67"><g id="c"><g><g><g><path d="m335.07,16.27v-5.91l12.94-7.29h4.4v43.23h-6.47V10.05l-10.87,6.22Z" style="fill:#e50012;"/><path d="m388.11,16.01c0-4.78-3.33-8.11-7.92-8.11-3.39,0-7.1,1.38-10.62,4.15v-6.16c3.89-2.32,8.04-3.58,12.19-3.58,7.6,0,13.01,5.28,13.01,12.69,0,6.66-4.9,14.14-17.47,25.82h17.97v5.47h-26.7v-4.21c14.26-12.76,19.54-20.23,19.54-26.08Z" style="fill:#e50012;"/></g><g><g><path d="m187.77,3.15l23.1,32.62V3.15h6.14v43.07h-5.7l-23.1-32.62v32.62h-6.13V3.15h5.7Z" style="fill:#040000;"/><path d="m217.09,46.31h-5.83l-.03-.04-22.95-32.4v32.43h-6.3V3.07h5.83l.03.04,22.94,32.4V3.07h6.3v43.24Zm-5.74-.17h5.57V3.24h-5.96v32.8l-.15-.22L187.73,3.24h-5.57v42.9h5.96V13.34l.15.22,23.08,32.58Z" style="fill:#040000;"/></g><g><path d="m240.98,14.17c9.14,0,15.53,6.76,15.53,16.4s-6.39,16.4-15.53,16.4-15.52-6.76-15.52-16.4,6.39-16.4,15.52-16.4Zm0,27.54c5.32,0,9.08-4.57,9.08-11.14s-3.76-11.14-9.08-11.14-9.08,4.57-9.08,11.14,3.75,11.14,9.08,11.14Z" style="fill:#040000;"/><path d="m240.98,47.06c-9.19,0-15.61-6.78-15.61-16.48s6.42-16.49,15.61-16.49,15.61,6.78,15.61,16.49-6.42,16.48-15.61,16.48Zm0-32.8c-9.09,0-15.44,6.71-15.44,16.32s6.35,16.32,15.44,16.32,15.44-6.71,15.44-16.32-6.35-16.32-15.44-16.32Zm0,27.54c-5.39,0-9.16-4.62-9.16-11.23s3.77-11.23,9.16-11.23,9.16,4.62,9.16,11.23-3.77,11.23-9.16,11.23Zm0-22.29c-5.29,0-8.99,4.55-8.99,11.06s3.7,11.06,8.99,11.06,8.99-4.55,8.99-11.06-3.7-11.06-8.99-11.06Z" style="fill:#040000;"/></g><g><path d="m281.67,14.92v5.07h-9.89v16.65c0,3,2,5.07,5.07,5.07,1.44,0,3.07-.56,4.82-1.5v5.38c-2.19.88-4.32,1.38-6.26,1.38-5.82,0-9.95-3.94-9.95-9.58v-17.4h-5.7v-5.07h5.7V6.1h6.32v8.83h9.89Z" style="fill:#040000;"/><path d="m275.41,47.06c-5.91,0-10.04-3.97-10.04-9.66v-17.32h-5.7v-5.24h5.7V6.01h6.49v8.83h9.89v5.24h-9.89v16.57c0,2.98,2,4.99,4.99,4.99,1.34,0,2.91-.49,4.78-1.49l.12-.07v5.58l-.05.02c-2.29.92-4.41,1.38-6.29,1.38Zm-15.56-27.15h5.7v17.49c0,5.59,4.06,9.49,9.87,9.49,1.85,0,3.92-.45,6.18-1.35v-5.18c-1.85.97-3.4,1.45-4.74,1.45-3.08,0-5.16-2.07-5.16-5.15v-16.74h9.89v-4.9h-9.89V6.18h-6.15v8.83h-5.7v4.9Z" style="fill:#040000;"/></g><g><path d="m301.07,14.17c7.89,0,13.21,6.39,13.21,15.46,0,.81,0,1.63-.12,2.5h-21.79c.38,5.88,4.57,9.89,10.33,9.89,2.94,0,6.13-1.06,9.27-3v5.51c-3.38,1.63-6.82,2.44-10.2,2.44-9.2,0-15.65-6.89-15.65-16.65s6.26-16.15,14.96-16.15Zm-.31,4.95c-4.57,0-8.01,3.57-8.39,8.83h15.78c-.19-5.2-3.13-8.83-7.39-8.83Z" style="fill:#040000;"/><path d="m301.76,47.06c-9.26,0-15.73-6.88-15.73-16.74,0-4.59,1.51-8.73,4.24-11.68,2.73-2.94,6.57-4.56,10.81-4.56,3.88,0,7.21,1.51,9.63,4.36,2.4,2.83,3.67,6.7,3.67,11.19,0,.8,0,1.63-.12,2.52v.07h-21.78c.41,5.82,4.52,9.72,10.24,9.72,2.87,0,6.06-1.03,9.22-2.99l.13-.08v5.71l-.05.02c-3.38,1.63-6.82,2.45-10.24,2.45Zm-.69-32.8c-4.19,0-7.98,1.6-10.68,4.5-2.71,2.91-4.19,7.02-4.19,11.56,0,9.75,6.4,16.57,15.56,16.57,3.38,0,6.78-.81,10.12-2.41v-5.3c-3.14,1.92-6.32,2.94-9.18,2.94-5.85,0-10.03-4.01-10.42-9.97v-.09s21.8,0,21.8,0c.11-.84.11-1.64.11-2.42,0-4.45-1.25-8.28-3.63-11.08-2.38-2.81-5.67-4.3-9.5-4.3Zm7.16,13.77h-15.96v-.09c.38-5.24,3.87-8.91,8.48-8.91,4.28,0,7.28,3.58,7.47,8.91v.09Zm-15.77-.17h15.6c-.22-5.18-3.14-8.66-7.3-8.66-4.49,0-7.9,3.56-8.3,8.66Z" style="fill:#040000;"/></g></g><g><path d="m152.83,11.31c2.33,0,4.18-1.79,4.18-4.12s-1.85-4.12-4.18-4.12-4.18,1.85-4.18,4.12,1.79,4.12,4.18,4.12" style="fill:#040000;"/><rect x="149.6" y="16.2" width="6.33" height="30.1" style="fill:#040000;"/><path d="m137.05,46.3v-19.65c0-4.96-2.27-6.93-5.97-6.93-2.33,0-4.48,1.02-6.27,2.57v24.01h-6.33v-19.65c0-4.96-3.05-6.93-7.05-6.93-2.21,0-3.94.54-5.25,1.55v25.02h-6.33v-28.3c2.99-2.39,7.76-3.58,12.24-3.58,4.18,0,7.64,1.14,9.91,3.46,3.17-2.21,6.75-3.46,10.45-3.46,6.93,0,10.93,3.64,10.93,11.05v20.84h-6.33Z" style="fill:#040000;"/><path d="m87.02,3.96v11.46c-2.33-.66-4.54-1.02-6.57-1.02-8.84,0-14.69,6.03-14.69,16.6s6.87,16.6,16.36,16.6c3.46,0,7.29-.78,11.23-2.27V2.29l-6.33,1.67Zm.06,37.44c-1.73.48-3.34.72-4.78.72-6.09,0-9.73-4.18-9.73-11.11,0-7.52,3.22-11.23,8.84-11.23,1.67,0,3.58.36,5.67,1.02v20.6Z" style="fill:#040000;"/><path d="m39.29,33.46h21.8c.3-12.48-4.18-19.05-13.67-19.05-8.72,0-14.99,5.55-14.99,16.36,0,11.58,6.39,16.84,16.06,16.84,3.94,0,8-1.08,11.23-2.69v-5.2c-4.36,1.73-7.05,2.39-11.17,2.39-5.19,0-9.26-2.93-9.26-8.66Zm8.12-13.79c5.25,0,7.76,3.76,7.76,8.84h-15.88c0-5.43,3.34-8.84,8.12-8.84Z" style="fill:#040000;"/><path d="m20.3,26.89c5.08-2.15,8.24-6.45,8.24-11.88,0-6.99-5.2-11.94-13.26-11.94H0v43.23h6.33v-18.45h7.46l8.54,18.45h7.46l-9.49-19.41Zm-6.93-4.3h-7.05v-14.27h7.05c5.37,0,8.48,2.63,8.48,7.11s-3.11,7.17-8.48,7.17Z" style="fill:#040000;"/></g></g><g><path d="m619.11,7.36c-1.37-3.03-3.73-5.33-6.92-6.37-2.45-.8-5.91-.87-10.15-.87h-50.83c-4.23,0-7.7.07-10.14.87-3.2,1.04-5.55,3.34-6.92,6.37-1.22,2.71-1.31,6.21-1.31,10.55v13.85c0,4.34.09,7.83,1.31,10.54,1.37,3.03,3.72,5.33,6.92,6.37,2.45.8,5.91.88,10.14.88h50.83c4.23,0,7.7-.08,10.15-.88,3.2-1.04,5.55-3.34,6.92-6.37,1.22-2.71,1.31-6.2,1.31-10.54v-13.85c0-4.34-.09-7.84-1.31-10.55Zm-1.8,25.05c0,3.74-.14,6.63-.89,8.32-1.06,2.39-2.87,4.18-5.2,4.93-1.98.64-4.01.77-9.12.77h-50.92c-5.11,0-7.14-.13-9.12-.77-2.34-.75-4.14-2.54-5.2-4.93-.75-1.7-.89-4.58-.89-8.32v-15.15c0-3.75.14-6.63.89-8.32,1.06-2.39,2.87-4.18,5.2-4.93,1.98-.64,4.01-.76,9.12-.76h50.92c5.12,0,7.15.12,9.12.76,2.34.75,4.14,2.54,5.2,4.93.75,1.7.89,4.57.89,8.32v15.15Z" style="fill:#040000;"/><path d="m602.04,49.67h-50.83c-4.09,0-7.67-.07-10.18-.89-3.13-1.02-5.55-3.24-7-6.43-1.23-2.72-1.33-6.25-1.33-10.59v-13.85c0-4.34.1-7.88,1.33-10.6,1.44-3.19,3.86-5.42,7-6.43,2.49-.81,6.08-.88,10.18-.88h50.83c4.1,0,7.69.07,10.18.88,3.13,1.02,5.55,3.24,7,6.43,1.23,2.71,1.32,6.25,1.32,10.6v13.85c0,4.34-.1,7.88-1.32,10.59-1.44,3.19-3.86,5.42-7,6.43-2.51.82-6.1.89-10.18.89ZM551.21.25c-4.07,0-7.64.07-10.1.87-3.07,1-5.43,3.17-6.85,6.3-1.21,2.67-1.3,6.18-1.3,10.49v13.85c0,4.31.1,7.82,1.3,10.49,1.41,3.12,3.78,5.3,6.85,6.3,2.47.81,6.04.87,10.1.87h50.83c4.07,0,7.63-.07,10.11-.87,3.07-1,5.43-3.17,6.85-6.3,1.21-2.67,1.3-6.18,1.3-10.49v-13.85c0-4.31-.1-7.83-1.3-10.49h0c-1.41-3.12-3.78-5.3-6.85-6.3-2.46-.8-6.03-.87-10.11-.87h-50.83Zm50.88,46.31h-50.92c-5,0-7.14-.12-9.16-.78-2.31-.74-4.18-2.52-5.28-5-.75-1.69-.9-4.57-.9-8.37v-15.15c0-3.91.15-6.68.9-8.37,1.1-2.48,2.97-4.26,5.28-5,2.02-.65,4.16-.77,9.16-.77h50.92c5,0,7.14.12,9.16.77,2.31.74,4.18,2.52,5.28,5,.75,1.7.9,4.46.9,8.37v15.15c0,3.8-.15,6.68-.9,8.37-1.1,2.48-2.97,4.25-5.28,5-2.02.66-4.16.78-9.16.78Zm-50.92-43.19c-4.97,0-7.09.11-9.08.76-2.24.72-4.06,2.45-5.13,4.86-.73,1.65-.88,4.5-.88,8.27v15.15c0,3.77.15,6.62.88,8.27,1.07,2.41,2.89,4.14,5.13,4.86,1.99.65,4.11.76,9.08.76h50.92c4.97,0,7.09-.12,9.08-.76,2.24-.72,4.06-2.45,5.13-4.86.73-1.65.88-4.5.88-8.27v-15.15c0-3.77-.15-6.62-.88-8.27-1.07-2.41-2.89-4.14-5.13-4.86-1.99-.64-4.11-.76-9.09-.76h-50.92Z" style="fill:#040000;"/></g><g><path d="m557.43,13.63v8.02c1.13-.22,2.18-.31,3.27-.31,5.75,0,9.68,3.75,9.68,9.24s-4.45,9.77-10.81,9.77c-2.31,0-4.71-.57-6.97-1.7v-4.32c2.22,1.48,4.45,2.22,6.58,2.22,3.92,0,6.67-2.49,6.67-5.97s-2.66-5.84-6.58-5.84c-1.92,0-3.88.26-5.8.83v-15.74h15.43v3.79h-11.46Z" style="fill:#040000;"/><path d="m590.6,40.36c-8.68,0-14.82-6.45-14.82-15.52s6.1-15.52,14.73-15.52c3.05,0,6.06.83,8.98,2.4v4.27c-2.83-1.92-5.67-2.96-8.41-2.96-6.32,0-10.77,4.88-10.77,11.81s4.36,11.81,10.55,11.81c1.83,0,3.71-.48,5.54-1.26v-7.89h-6.84v-3.4h11.12v13.78c-3.31,1.61-6.71,2.49-10.07,2.49Z" style="fill:#040000;"/></g><g><path d="m433.85,3.05c8.49,0,14.58,5.47,14.58,13.32s-6.1,13.32-14.58,13.32h-8.36v16.59h-5.03V3.05h13.39Zm-.75,22.56c5.97,0,10.12-3.71,10.12-9.24s-4.15-9.24-10.12-9.24h-7.6v18.48h7.6Z"/><path d="m460.94,14.87v3.77c2.45-2.89,5.59-4.53,8.67-4.53,1.01,0,2.01.13,3.08.44v4.53c-1.07-.31-2.2-.5-3.33-.5-2.95,0-6.03,1.7-8.42,4.9v22.82h-4.97V14.87h4.97Z"/><path d="m491.42,14.12c8.86,0,15.15,6.79,15.15,16.47s-6.29,16.47-15.15,16.47-15.15-6.79-15.15-16.47,6.22-16.47,15.15-16.47Zm0,28.79c5.85,0,9.99-5.09,9.99-12.32s-4.15-12.32-9.99-12.32-10.06,5.09-10.06,12.32,4.15,12.32,10.06,12.32Z"/></g></g></g></svg>