<svg xmlns="http://www.w3.org/2000/svg" width="506.57" height="45.32" viewBox="0 0 506.57 45.32"><path d="M335.07,14V8.07L348,.78h4.4V44h-6.47V7.76Z" style="fill:#e50012"/><path d="M388.11,13.73a7.71,7.71,0,0,0-7.91-8.11,17.47,17.47,0,0,0-10.62,4.15V3.61A23.72,23.72,0,0,1,381.77,0c7.6,0,13,5.28,13,12.69,0,6.66-4.9,14.14-17.46,25.82h18V44H368.57V39.8C382.84,27.05,388.11,19.57,388.11,13.73Z" style="fill:#e50012"/><path d="M187.77.87l23.1,32.61V.87H217V43.93h-5.69l-23.1-32.61V43.93h-6.14V.87Z" style="fill:#040000"/><path d="M217.09,44h-5.83l0,0-23-32.39V44H182V.78h5.83l0,0,22.94,32.39V.78h6.31Zm-5.74-.17h5.57V1h-6v32.8l-.15-.22L187.73,1h-5.57v42.9h6V11.05l.16.22Z" style="fill:#040000"/><path d="M241,11.88c9.14,0,15.52,6.76,15.52,16.4S250.12,44.69,241,44.69s-15.53-6.77-15.53-16.41S231.84,11.88,241,11.88Zm0,27.55c5.32,0,9.08-4.57,9.08-11.15S246.3,17.14,241,17.14s-9.08,4.57-9.08,11.14S235.66,39.43,241,39.43Z" style="fill:#040000"/><path d="M241,44.77c-9.19,0-15.61-6.78-15.61-16.49S231.79,11.8,241,11.8s15.61,6.78,15.61,16.48S250.17,44.77,241,44.77ZM241,12c-9.09,0-15.44,6.71-15.44,16.31S231.89,44.6,241,44.6s15.44-6.71,15.44-16.32S250.07,12,241,12Zm0,27.54c-5.4,0-9.16-4.61-9.16-11.23s3.76-11.22,9.16-11.22,9.16,4.61,9.16,11.22S246.37,39.51,241,39.51Zm0-22.28c-5.3,0-9,4.54-9,11.05s3.69,11.06,9,11.06,9-4.54,9-11.06S246.27,17.23,241,17.23Z" style="fill:#040000"/><path d="M281.67,12.63v5.08h-9.89V34.36a4.8,4.8,0,0,0,5.07,5.07,10.68,10.68,0,0,0,4.82-1.51v5.39a17.32,17.32,0,0,1-6.26,1.38c-5.82,0-10-3.95-10-9.58V17.71h-5.69V12.63h5.69V3.81h6.33v8.82Z" style="fill:#040000"/><path d="M275.41,44.77c-5.91,0-10-4-10-9.66V17.79h-5.7V12.55h5.7V3.72h6.49v8.83h9.89v5.24h-9.89V34.36a4.72,4.72,0,0,0,5,5,10.52,10.52,0,0,0,4.78-1.49l.12-.07v5.58l-.05,0A17.33,17.33,0,0,1,275.41,44.77ZM259.84,17.62h5.7V35.11c0,5.59,4.06,9.49,9.87,9.49a16.87,16.87,0,0,0,6.17-1.35V38.07a10.43,10.43,0,0,1-4.73,1.44,4.88,4.88,0,0,1-5.16-5.15V17.62h9.89v-4.9h-9.89V3.89h-6.15v8.83h-5.7Z" style="fill:#040000"/><path d="M301.07,11.88c7.89,0,13.21,6.39,13.21,15.46a18,18,0,0,1-.12,2.51H292.37c.38,5.88,4.57,9.89,10.33,9.89a18,18,0,0,0,9.27-3v5.5a23.47,23.47,0,0,1-10.21,2.45c-9.2,0-15.65-6.89-15.65-16.66C286.11,18.58,292.37,11.88,301.07,11.88Zm-.31,4.95c-4.57,0-8,3.57-8.39,8.83h15.78C308,20.46,305,16.83,300.76,16.83Z" style="fill:#040000"/><path d="M301.76,44.77C292.5,44.77,286,37.89,286,28a17,17,0,0,1,4.24-11.67,14.51,14.51,0,0,1,10.8-4.56,12.21,12.21,0,0,1,9.63,4.36,17,17,0,0,1,3.67,11.18,16.83,16.83,0,0,1-.13,2.52v.07H292.46c.41,5.82,4.52,9.73,10.24,9.73a17.92,17.92,0,0,0,9.22-3l.13-.08V42.3l-.05,0A23.43,23.43,0,0,1,301.76,44.77ZM301.07,12a14.38,14.38,0,0,0-10.68,4.5A16.85,16.85,0,0,0,286.2,28c0,9.76,6.4,16.57,15.56,16.57a23.32,23.32,0,0,0,10.12-2.41v-5.3a18,18,0,0,1-9.18,2.93c-5.85,0-10-4-10.41-10v-.09h21.8a16.76,16.76,0,0,0,.12-2.42,16.81,16.81,0,0,0-3.63-11.07A12,12,0,0,0,301.07,12Zm7.16,13.77h-16v-.09c.37-5.24,3.86-8.91,8.47-8.91,4.28,0,7.28,3.58,7.47,8.91Zm-15.77-.17h15.6c-.22-5.18-3.14-8.66-7.3-8.66C296.27,16.91,292.86,20.47,292.46,25.57Z" style="fill:#040000"/><path d="M152.83,9a4.12,4.12,0,1,0-4.18-4.12A4.07,4.07,0,0,0,152.83,9" style="fill:#040000"/><rect x="149.6" y="13.91" width="6.33" height="30.1" style="fill:#040000"/><path d="M137.05,44V24.36c0-4.95-2.27-6.92-6-6.92A9.65,9.65,0,0,0,124.8,20V44h-6.33V24.36c0-4.95-3-6.92-7-6.92A8.33,8.33,0,0,0,106.17,19V44H99.84V15.7c3-2.38,7.77-3.58,12.25-3.58,4.17,0,7.64,1.14,9.91,3.47a18.22,18.22,0,0,1,10.45-3.47c6.92,0,10.93,3.64,10.93,11.05V44Z" style="fill:#040000"/><path d="M87,1.67V13.14a24.37,24.37,0,0,0-6.57-1c-8.84,0-14.69,6-14.69,16.6,0,11,6.87,16.6,16.36,16.6a32,32,0,0,0,11.23-2.27V0Zm.06,37.44a18.08,18.08,0,0,1-4.78.72c-6.09,0-9.73-4.18-9.73-11.11,0-7.52,3.22-11.22,8.84-11.22a19.21,19.21,0,0,1,5.67,1Z" style="fill:#040000"/><path d="M39.29,31.17h21.8c.3-12.48-4.18-19.05-13.68-19.05-8.72,0-15,5.56-15,16.36,0,11.59,6.38,16.84,16.06,16.84a25.91,25.91,0,0,0,11.22-2.68v-5.2a26.69,26.69,0,0,1-11.16,2.39C43.35,39.83,39.29,36.9,39.29,31.17Zm8.12-13.79c5.26,0,7.77,3.76,7.77,8.83H39.29C39.29,20.78,42.64,17.38,47.41,17.38Z" style="fill:#040000"/><path d="M20.3,24.6c5.08-2.15,8.24-6.45,8.24-11.88,0-7-5.19-11.94-13.25-11.94H0V44H6.33V25.56h7.46L22.33,44H29.8Zm-6.92-4.3h-7V6h7.05c5.37,0,8.48,2.63,8.48,7.11S18.75,20.3,13.38,20.3Z" style="fill:#040000"/><path d="M433.85.77c8.48,0,14.58,5.46,14.58,13.32s-6.1,13.32-14.58,13.32h-8.36V44h-5V.77Zm-.76,22.56c6,0,10.12-3.71,10.12-9.24s-4.15-9.24-10.12-9.24h-7.6V23.33Z"/><path d="M460.94,12.58v3.77a11.67,11.67,0,0,1,8.67-4.52,10.52,10.52,0,0,1,3.08.44v4.52a12,12,0,0,0-3.33-.5c-3,0-6,1.7-8.42,4.9V44h-5V12.58Z"/><path d="M491.42,11.83c8.86,0,15.15,6.78,15.15,16.46s-6.29,16.47-15.15,16.47S476.27,38,476.27,28.29,482.5,11.83,491.42,11.83Zm0,28.78c5.85,0,10-5.09,10-12.32S497.27,16,491.42,16s-10.06,5.09-10.06,12.31S485.51,40.61,491.42,40.61Z"/></svg>